<?xml version="1.0" encoding="UTF-8"?>
<!DOCTYPE svg PUBLIC "-//W3C//DTD SVG 1.1//EN" "http://www.w3.org/Graphics/SVG/1.1/DTD/svg11.dtd">
<!-- Creator: CorelDRAW X6 -->
<svg xmlns="http://www.w3.org/2000/svg" xml:space="preserve" width="200%" height="200%" version="1.1" style="shape-rendering:geometricPrecision; text-rendering:geometricPrecision; image-rendering:optimizeQuality; fill-rule:evenodd; clip-rule:evenodd"
viewBox="0 0 1617 1617"
 xmlns:xlink="http://www.w3.org/1999/xlink">
 <defs>
  <style type="text/css">
   <![CDATA[
    .fil0 {fill:#373435}
   ]]>
  </style>
 </defs>
 <g id="Layer_x0020_1">
  <metadata id="CorelCorpID_0Corel-Layer"/>
  <g id="_1008455248">
   <path class="fil0" d="M81 1438l0 -1259c0,-48 50,-98 98,-98l1259 0c48,0 98,50 98,98l0 1259c0,48 -50,98 -98,98l-1259 0c-48,0 -98,-50 -98,-98zm-81 -1251l0 1242c0,99 89,187 187,187l1247 0c93,0 183,-90 183,-183l0 -1251c0,-91 -87,-183 -187,-183l-1242 0c-99,0 -187,89 -187,187z"/>
   <path class="fil0" d="M808 940l0 366 -153 0 0 -651 153 0c0,66 -11,98 47,98 17,0 29,-32 87,-66 122,-72 364,-31 364,228l0 391 -149 0 0 -323c0,-248 -223,-250 -298,-167 -23,25 -50,77 -50,124zm-234 -311l0 698c0,32 11,60 43,60l230 0c52,0 38,-73 38,-128 0,-67 -4,-277 5,-327 11,-64 41,-86 97,-86 113,0 89,166 89,247l0 251c1,14 3,23 12,31 6,5 20,12 31,12l226 0c24,0 43,-19 43,-43l0 -417c0,-130 -47,-239 -150,-306 -37,-24 -115,-52 -175,-45 -90,11 -96,10 -177,53 0,-21 1,-34 -12,-44 -25,-20 -196,-12 -244,-12 -36,0 -55,19 -55,55z"/>
   <path class="fil0" d="M311 655l149 0 0 651 -149 0 0 -651zm-81 -38l0 728c0,24 19,43 43,43l226 0c26,0 43,-17 43,-47l0 -723c0,-32 -27,-43 -60,-43l-191 0c-32,0 -60,11 -60,43z"/>
   <path class="fil0" d="M311 404c0,-52 47,-55 89,-55 80,0 81,111 0,111 -36,0 -89,4 -89,-55zm-81 0c0,82 85,136 162,136 109,0 212,-130 101,-233 -85,-79 -263,-32 -263,97z"/>
  </g>
 </g>
</svg>
