<?xml version="1.0" encoding="UTF-8"?>
<!DOCTYPE svg PUBLIC "-//W3C//DTD SVG 1.1//EN" "http://www.w3.org/Graphics/SVG/1.1/DTD/svg11.dtd">
<!-- Creator: CorelDRAW X6 -->
<svg xmlns="http://www.w3.org/2000/svg" xml:space="preserve" width="200%" height="200%" version="1.1" style="shape-rendering:geometricPrecision; text-rendering:geometricPrecision; image-rendering:optimizeQuality; fill-rule:evenodd; clip-rule:evenodd"
viewBox="0 0 2670 3049"
 xmlns:xlink="http://www.w3.org/1999/xlink">
 <defs>
  <style type="text/css">
   <![CDATA[
    .fil0 {fill:#EDE54E}
   ]]>
  </style>
 </defs>
 <g id="Layer_x0020_1">
  <metadata id="CorelCorpID_0Corel-Layer"/>
  <path class="fil0" d="M2316 2320c-13,3 -140,77 -166,90l-388 216c-39,21 -72,40 -111,61 -19,10 -35,21 -54,31l-114 62c-15,9 -41,27 -57,30l0 -1220c20,-10 35,-21 54,-31 20,-10 38,-21 56,-32l113 -63c25,-15 215,-117 224,-128 13,-3 26,-9 33,-18l440 -246 24 -12c1,-1 4,-2 5,-3 1,0 2,-1 2,-2 0,0 1,-1 2,-2 13,-3 44,-23 57,-30 18,-10 48,-29 63,-32 -9,24 -4,1101 -4,1224 -11,8 -22,13 -35,20 -13,8 -24,14 -38,21 -14,8 -25,14 -38,21l-37 22 -31 17c0,0 -1,1 -2,2zm-1843 -1829l-33 18c-12,3 -19,9 -29,15l-320 186c-62,38 -84,51 -90,89l0 187 0 550 0 737c2,25 14,47 28,59 13,11 41,26 57,34 21,11 38,22 59,33l177 98c20,12 38,21 59,33 11,6 16,10 28,16 13,7 18,13 32,16 4,3 -1,0 6,5 4,2 6,3 9,6 8,5 7,5 18,8l324 182c15,8 99,57 112,60 6,5 -3,-2 6,5 5,3 5,4 9,6 7,4 9,5 18,7 20,17 286,160 333,187 20,11 39,20 58,22l18 0c17,-2 35,-10 53,-26 14,-3 22,-9 33,-18 13,-3 16,-6 27,-13l83 -46c93,-54 211,-114 299,-166l27 -17 31 -17c0,0 1,-1 2,-2 14,-4 41,-22 55,-29 106,-55 248,-139 358,-199 12,-7 19,-7 27,-17 13,-3 26,-9 33,-18 16,-4 190,-103 197,-107 32,-20 70,-31 86,-68 13,-29 6,-107 6,-148 0,-434 -3,-876 0,-1308 0,-37 -20,-87 -47,-107 -6,-4 -17,-10 -23,-14 -9,-5 -16,-10 -25,-15l-194 -113c-4,-3 1,0 -6,-5 -4,-2 -6,-3 -9,-6 -8,-5 -7,-5 -18,-8 -7,-10 -94,-58 -107,-65 -80,-48 -252,-152 -333,-195 -4,-3 1,0 -6,-5 -4,-2 -6,-3 -9,-6 -8,-5 -7,-5 -18,-8 -19,-16 -192,-115 -216,-129 -19,-11 -34,-21 -53,-31 -7,-4 -9,-5 -14,-8l-97 -58c-13,-8 -44,-28 -57,-31 -5,-7 -20,-16 -29,-18l-13 -9c-21,-13 -37,-20 -54,-20l-6 0c-17,1 -35,8 -56,21 -38,23 -75,43 -114,66 -38,23 -75,43 -114,66l-113 67c-12,6 -22,8 -29,18 -16,4 -202,114 -220,125 -28,17 -208,116 -216,128zm938 905l-31 17c0,0 -1,1 -2,2 -49,26 -26,33 -103,-14l-307 -177c-4,-3 1,0 -6,-5 -4,-2 -6,-3 -9,-6 -8,-5 -7,-5 -18,-8 -7,-10 -52,-32 -66,-40l-367 -213c-3,-2 -2,-2 -6,-5 -5,-3 -5,-2 -10,-5 -11,-6 -5,-5 -17,-9l-50 -31c-27,-15 -147,-83 -155,-94 12,-3 37,-20 50,-27l152 -90c11,-3 9,-3 18,-8l15 -10 430 -248c7,-5 2,-1 6,-5 11,-3 8,-4 20,-10 13,-7 10,-2 17,-12 13,-3 228,-129 252,-144 17,-11 33,-20 51,-30 11,-6 15,-9 26,-15 47,-28 29,-25 78,1 4,3 -1,0 6,5 4,2 6,3 9,6 8,5 7,5 18,8 7,10 12,9 24,16l355 209c13,8 44,28 57,31 5,7 20,16 29,18 16,14 201,120 216,128l164 97c14,8 43,28 57,31l8 7c6,5 2,1 9,6 8,5 10,7 20,10l20 13c9,5 15,10 24,13l-49 35c-7,4 -11,6 -17,10l-194 114c-64,39 -190,108 -249,147 -7,5 -3,1 -9,6 -10,3 -24,11 -29,18 -13,3 -43,22 -55,30 -59,35 -364,212 -381,227zm-912 1000c-3,-2 -2,-2 -6,-5 -5,-3 -5,-2 -10,-5 -11,-6 -5,-5 -17,-9l-290 -161 0 -1250 131 74c23,14 42,24 65,38l68 38c4,3 -1,0 6,5 4,2 6,3 9,6 8,5 7,5 18,8 9,13 299,175 325,191 15,9 95,58 111,62 5,7 20,16 29,18l272 160c15,8 27,15 39,23l0 1220c-26,-7 -257,-145 -279,-150 -6,-5 3,2 -6,-5 -5,-3 -5,-4 -9,-6 -7,-4 -9,-5 -18,-7 -14,-12 -193,-111 -217,-123l-165 -92c-16,-8 -43,-27 -57,-31z"/>
 </g>
</svg>
