<?xml version="1.0" encoding="UTF-8"?>
<!DOCTYPE svg PUBLIC "-//W3C//DTD SVG 1.1//EN" "http://www.w3.org/Graphics/SVG/1.1/DTD/svg11.dtd">
<!-- Creator: CorelDRAW X6 -->
<svg xmlns="http://www.w3.org/2000/svg" xml:space="preserve" width="100%" height="100%" version="1.1" style="shape-rendering:geometricPrecision; text-rendering:geometricPrecision; image-rendering:optimizeQuality; fill-rule:evenodd; clip-rule:evenodd"
viewBox="0 0 412 598"
 xmlns:xlink="http://www.w3.org/1999/xlink">
 <defs>
  <style type="text/css">
   <![CDATA[
    .fil0 {fill:#E0DA6B}
    .fil1 {fill:#4B4B4D;fill-rule:nonzero}
   ]]>
  </style>
 </defs>
 <g id="Layer_x0020_1">
  <metadata id="CorelCorpID_0Corel-Layer"/>
  <g id="_1008456304">
   <g>
    <path class="fil0" d="M184 580l43 0c92,0 167,-75 167,-167l0 -229c0,-92 -75,-167 -167,-167l-43 0c-92,0 -167,75 -167,167l0 229c0,92 75,167 167,167z"/>
    <path id="1" class="fil1" d="M227 598l-43 0 0 -35 43 0 0 0 0 35zm149 -184l35 0 0 0 0 9 -1 9 -1 9 -2 9 -2 9 -3 9 -3 9 -3 8 -4 8 -4 8 -4 8 -5 7 -5 7 -5 7 -6 7 -6 6 -6 6 -7 6 -7 5 -7 5 -7 5 -8 4 -8 4 -8 4 -8 3 -9 3 -9 3 -9 2 -9 2 -9 1 -9 1 -9 0 0 -35 8 0 8 -1 7 -1 7 -1 7 -2 7 -2 7 -2 7 -3 7 -3 6 -3 6 -4 6 -4 6 -4 6 -4 5 -5 5 -5 5 -5 5 -5 4 -6 4 -6 4 -6 4 -6 3 -6 3 -7 3 -7 2 -7 2 -7 2 -7 1 -7 1 -7 1 -8 0 -8 0 0zm35 -229l0 229 -35 0 0 -229 0 0 35 0zm-184 -149l0 -35 0 0 9 0 9 1 9 1 9 2 9 2 9 3 9 3 8 3 8 4 8 4 8 4 7 5 7 5 7 5 7 6 6 6 6 6 6 7 5 7 5 7 5 7 4 8 4 8 4 8 3 8 3 9 3 9 2 9 2 9 1 9 1 9 0 9 -35 0 0 -8 -1 -8 -1 -7 -1 -7 -2 -7 -2 -7 -2 -7 -3 -7 -3 -7 -3 -6 -4 -6 -4 -6 -4 -6 -4 -6 -5 -5 -5 -5 -5 -5 -5 -5 -6 -4 -6 -4 -6 -4 -6 -4 -6 -3 -7 -3 -7 -3 -7 -2 -7 -2 -7 -2 -7 -1 -7 -1 -8 -1 -8 0 0 0zm-43 -35l43 0 0 35 -43 0 0 0 0 -35zm-149 184l-35 0 0 0 0 -9 1 -9 1 -9 2 -9 2 -9 3 -9 3 -9 3 -8 4 -8 4 -8 4 -8 5 -8 5 -7 5 -7 6 -7 6 -6 6 -6 7 -6 7 -5 7 -5 7 -5 8 -4 8 -4 8 -4 8 -3 9 -3 9 -3 9 -2 9 -2 9 -1 9 -1 9 0 0 35 -8 0 -8 1 -7 1 -7 1 -7 2 -7 2 -7 2 -7 3 -7 3 -6 3 -6 4 -6 4 -6 4 -6 4 -5 5 -5 5 -5 5 -5 5 -4 6 -4 6 -4 6 -4 6 -3 6 -3 7 -3 7 -2 7 -2 7 -2 7 -1 7 -1 7 -1 8 0 8 0 0zm-35 229l0 -229 35 0 0 229 0 0 -35 0zm184 149l0 35 0 0 -9 0 -9 -1 -9 -1 -9 -2 -9 -2 -9 -3 -9 -3 -8 -3 -8 -4 -8 -4 -8 -4 -7 -5 -7 -5 -7 -5 -7 -6 -6 -6 -6 -6 -6 -7 -5 -7 -5 -7 -5 -8 -4 -8 -4 -8 -4 -8 -3 -8 -3 -9 -3 -9 -2 -9 -2 -9 -1 -9 -1 -9 0 -9 35 0 0 8 1 8 1 7 1 7 2 7 2 7 2 7 3 7 3 7 3 6 4 6 4 6 4 6 4 6 5 5 5 5 5 5 5 5 6 4 6 4 6 4 6 4 6 3 7 3 7 3 7 2 7 2 7 2 7 1 7 1 8 1 8 0 0 0z"/>
   </g>
   <g>
    <path class="fil1" d="M215 154l-18 0 0 -35 18 0 18 18 -18 18zm0 -35l18 0 0 18 -18 -18zm-18 115l0 -97 35 0 0 97 -18 18 -18 -18zm35 0l0 18 -18 0 18 -18zm-36 -18l18 0 0 35 -18 0 -18 -18 18 -18zm0 35l-18 0 0 -18 18 18zm18 -115l0 97 -35 0 0 -97 18 -18 18 18zm-35 0l0 -18 18 0 -18 18z"/>
   </g>
  </g>
 </g>
</svg>
