<?xml version="1.0" encoding="UTF-8"?>
<!DOCTYPE svg PUBLIC "-//W3C//DTD SVG 1.1//EN" "http://www.w3.org/Graphics/SVG/1.1/DTD/svg11.dtd">
<!-- Creator: CorelDRAW X6 -->
<svg xmlns="http://www.w3.org/2000/svg" xml:space="preserve" width="200%" height="200%" version="1.1" style="shape-rendering:geometricPrecision; text-rendering:geometricPrecision; image-rendering:optimizeQuality; fill-rule:evenodd; clip-rule:evenodd"
viewBox="0 0 1703 1715"
 xmlns:xlink="http://www.w3.org/1999/xlink">
 <defs>
  <style type="text/css">
   <![CDATA[
    .fil0 {fill:#373435}
   ]]>
  </style>
 </defs>
 <g id="Layer_x0020_1">
  <metadata id="CorelCorpID_0Corel-Layer"/>
  <g id="_745876528">
   <path class="fil0" d="M1616 867c-1,6 0,17 0,24l-6 66c-7,53 -20,106 -37,156 -14,41 -31,79 -51,116 -17,31 -36,59 -56,88 -3,5 -7,9 -10,14 -8,12 -34,42 -44,52 -8,8 -16,16 -24,25l-37 35c-3,2 -4,2 -7,5l-33 27c-5,3 -8,6 -14,10 -86,61 -177,104 -282,127 -45,10 -81,13 -127,17 -20,2 -50,2 -70,1 -76,-4 -150,-18 -221,-43 -35,-13 -68,-26 -100,-44 -5,-3 -11,-6 -16,-8l-30 -18c-25,-15 -49,-31 -71,-49l-27 -22c-11,-8 -41,-36 -50,-46l-11 -13c-4,-4 -8,-8 -11,-12l-22 -26c-13,-16 -30,-38 -41,-55l-28 -44c-99,-172 -131,-376 -85,-571 9,-37 21,-75 35,-109 5,-11 10,-23 15,-34 13,-31 33,-65 50,-92 3,-5 6,-10 9,-15l30 -42c4,-5 7,-8 10,-13 10,-14 45,-51 58,-63 18,-18 32,-30 50,-45l13 -11c22,-17 47,-34 70,-50 45,-30 112,-60 164,-77 132,-44 284,-50 421,-17 25,6 50,13 74,22 67,25 132,57 189,99l60 48c22,20 46,43 66,66 18,21 38,43 53,66 18,29 39,58 55,90 22,45 34,70 50,119 17,51 28,104 34,158 2,20 7,73 4,91zm-1616 -46l0 75c1,2 3,41 4,47 8,70 16,106 34,171 4,13 9,26 13,39 8,25 26,65 38,90 3,6 6,11 9,17 17,34 57,96 81,126l11 14c9,11 13,17 24,28l12 14c7,8 51,52 58,58 3,3 4,3 7,6 5,5 9,8 14,12l36 28c3,2 5,4 7,6 35,27 108,70 146,86 57,24 91,39 153,54 47,11 86,18 133,22 6,0 47,2 49,3l46 0c1,-1 44,-3 48,-3 67,-5 151,-23 213,-46 25,-9 51,-19 74,-30 24,-12 45,-22 68,-36 13,-8 42,-26 56,-35l23 -16c23,-19 34,-26 57,-47 19,-17 35,-33 54,-51 12,-12 48,-54 60,-70 43,-60 64,-90 98,-163 39,-84 69,-192 76,-288 0,-6 2,-48 3,-50l0 -46c-1,-1 -3,-43 -3,-49 -6,-69 -22,-153 -46,-217 -16,-42 -27,-70 -48,-110 -6,-11 -13,-23 -19,-34l-87 -124c-11,-14 -52,-56 -64,-68 -3,-2 -4,-4 -6,-7l-72 -60c-47,-35 -106,-69 -158,-93 -77,-35 -161,-58 -247,-69 -15,-2 -33,-3 -48,-4 -9,-1 -47,0 -51,-2l-3 0c-5,2 -41,1 -51,2 -16,2 -32,3 -47,4 -82,9 -174,35 -246,68 -72,33 -148,79 -207,132 -5,4 -9,9 -14,12 -10,7 -18,18 -27,25 -8,7 -31,31 -38,41 -3,4 -8,9 -12,14l-46 58c-2,3 -4,6 -6,8 -2,3 -4,5 -5,8 -3,4 -7,10 -10,16 -24,36 -57,96 -72,136 -35,89 -53,153 -63,250 -1,6 -3,45 -4,48z"/>
   <path class="fil0" d="M1142 1646l-12 -52 -61 -23c-22,-6 -30,-20 -32,-44l-1 -185c-2,-71 -14,-127 -51,-158 203,-27 308,-114 332,-248 27,-123 22,-235 -61,-320 20,-56 19,-118 -12,-202 -62,-1 -129,26 -200,78 -58,-17 -121,-23 -189,-27l0 0 -3 0 -3 0 0 0c-68,3 -131,10 -189,27 -71,-52 -138,-79 -200,-78 -30,84 -32,147 -12,202 -84,85 -89,197 -61,320 24,134 126,222 328,248 -27,23 -37,59 -41,105 -30,7 -60,17 -90,18 -30,0 -57,-8 -81,-23 -11,-7 -24,-15 -33,-26 -20,-23 -34,-53 -59,-79 -15,-12 -32,-21 -50,-26 -11,-3 -78,-10 -60,17 31,26 65,47 78,72 35,53 40,111 100,140 60,32 127,33 192,22l0 123c-1,24 -9,37 -32,44l-61 23 -20 52 295 24 0 3 16 -1 3 0 0 0 269 -25z"/>
  </g>
 </g>
</svg>
