<?xml version="1.0" encoding="UTF-8"?>
<!DOCTYPE svg PUBLIC "-//W3C//DTD SVG 1.1//EN" "http://www.w3.org/Graphics/SVG/1.1/DTD/svg11.dtd">
<!-- Creator: CorelDRAW X6 -->
<svg xmlns="http://www.w3.org/2000/svg" xml:space="preserve" width="200%" height="705556%" version="1.1" style="shape-rendering:geometricPrecision; text-rendering:geometricPrecision; image-rendering:optimizeQuality; fill-rule:evenodd; clip-rule:evenodd"
viewBox="0 0 650 2946823"
 xmlns:xlink="http://www.w3.org/1999/xlink">
 <defs>
  <style type="text/css">
   <![CDATA[
    .str0 {stroke:#FEFEFE;stroke-width:99.24;stroke-linecap:round}
    .fil0 {fill:none}
    .fil1 {fill:#FEFEFE;fill-rule:nonzero}
   ]]>
  </style>
 </defs>
 <g id="Layer_x0020_1">
  <metadata id="CorelCorpID_0Corel-Layer"/>
  <g id="_1008467056">
   <polyline class="fil0 str0" points="107,1403914 324,2175863 548,1403914 "/>
   <line class="fil0 str0" x1="324" y1="2175863" x2="324" y2= "175048" />
   <g>
    <path class="fil1" d="M44 2596727l0 350097 -2 -212 -2 -706 -2 -1129 -2 -1482 -2 -1976 -2 -2399 -2 -2752 -2 -3104 -2 -3528 -2 -3810 -2 -4233 -2 -4586 -2 -4868 -2 -5221 -2 -5503 -2 -5786 -1 -6068 -1 -6350 -1 -6632 -1 -6844 -1 -7126 -1 -7338 -1 -7479 -1 -7761 -1 -7973 -1 -8114 -1 -8326 0 -8467 0 -8608 0 -8749 0 -8890 0 -9031 0 -9031 0 -8890 0 -8749 0 -8608 0 -8467 1 -8326 1 -8114 1 -7973 1 -7761 1 -7479 1 -7338 1 -7126 1 -6844 1 -6632 1 -6350 1 -6068 2 -5786 2 -5503 2 -5221 2 -4868 2 -4586 2 -4233 2 -3810 2 -3528 2 -3104 2 -2752 2 -2399 2 -1976 2 -1482 2 -1129 2 -706 2 -212zm563 350097l-563 0 0 -350097 563 0 0 350097zm0 0l0 -350097 2 212 2 706 2 1129 2 1482 2 1976 2 2399 2 2752 2 3104 2 3528 2 3810 2 4233 2 4586 2 4868 2 5221 2 5503 2 5786 1 6068 1 6350 1 6632 1 6844 1 7126 1 7338 1 7479 1 7761 1 7973 1 8114 1 8326 0 8467 0 8608 0 8749 0 8890 0 9031 0 9031 0 8890 0 8749 0 8608 0 8467 -1 8326 -1 8114 -1 7973 -1 7761 -1 7479 -1 7338 -1 7126 -1 6844 -1 6632 -1 6350 -1 6068 -2 5786 -2 5503 -2 5221 -2 4868 -2 4586 -2 4233 -2 3810 -2 3528 -2 3104 -2 2752 -2 2399 -2 1976 -2 1482 -2 1129 -2 706 -2 212z"/>
   </g>
  </g>
 </g>
</svg>
