<?xml version="1.0" encoding="UTF-8"?>
<!DOCTYPE svg PUBLIC "-//W3C//DTD SVG 1.1//EN" "http://www.w3.org/Graphics/SVG/1.1/DTD/svg11.dtd">
<!-- Creator: CorelDRAW X6 -->
<svg xmlns="http://www.w3.org/2000/svg" xml:space="preserve" width="200%" height="200%" version="1.1" style="shape-rendering:geometricPrecision; text-rendering:geometricPrecision; image-rendering:optimizeQuality; fill-rule:evenodd; clip-rule:evenodd"
viewBox="0 0 692 1110"
 xmlns:xlink="http://www.w3.org/1999/xlink">
 <defs>
  <style type="text/css">
   <![CDATA[
    .fil0 {fill:#FEFEFE}
   ]]>
  </style>
 </defs>
 <g id="Layer_x0020_1">
  <metadata id="CorelCorpID_0Corel-Layer"/>
  <path class="fil0" d="M483 1110l-483 0 0 0 275 0 0 -485 -155 0c-9,-1 3,5 -9,-3l0 -205 166 0c0,-154 -10,-240 73,-340 24,-30 78,-62 135,-71 54,-8 145,-3 203,-3 6,4 3,-6 5,11l-1 196c-15,5 -79,4 -96,2 -47,-4 -87,26 -100,58 -17,41 -11,100 -11,147l206 0 -41 206 -166 0 0 487z"/>
 </g>
</svg>
