<?xml version="1.0" encoding="UTF-8"?>
<!DOCTYPE svg PUBLIC "-//W3C//DTD SVG 1.1//EN" "http://www.w3.org/Graphics/SVG/1.1/DTD/svg11.dtd">
<!-- Creator: CorelDRAW X6 -->
<svg xmlns="http://www.w3.org/2000/svg" xml:space="preserve" width="300%" height="300%" version="1.1" style="shape-rendering:geometricPrecision; text-rendering:geometricPrecision; image-rendering:optimizeQuality; fill-rule:evenodd; clip-rule:evenodd"
viewBox="0 0 446 426"
 xmlns:xlink="http://www.w3.org/1999/xlink">
 <defs>
  <style type="text/css">
   <![CDATA[
    .fil0 {fill:#ECE34C}
   ]]>
  </style>
 </defs>
 <g id="Layer_x0020_1">
  <metadata id="CorelCorpID_0Corel-Layer"/>
  <g id="_891327024">
   <path class="fil0" d="M433 379c1,2 0,12 0,14 -2,10 -10,19 -21,21 -6,1 -20,1 -27,1l-56 0c-17,0 -34,3 -44,-12 -4,-6 -5,-15 -4,-23l153 0zm-153 -11c-1,-6 0,-15 0,-21 0,-13 0,-146 0,-148 2,-1 32,0 37,0l112 0 0 169 -149 0zm0 -180c0,-10 0,-15 5,-22 3,-4 9,-9 17,-11 5,-1 48,0 54,0 6,0 49,0 54,0 8,1 14,6 17,11 5,7 5,12 5,22l-153 0zm-269 -116l424 0 0 85 -5 -4c-11,-9 -21,-9 -35,-9l-88 0c-9,0 -17,3 -22,8 -16,13 -15,26 -15,44l0 119c0,7 0,23 0,30l-247 0c-4,0 -6,-1 -8,-3 -2,-2 -3,-4 -3,-8l0 -262zm0 -11c0,-11 0,-22 0,-33 0,-6 -1,-10 3,-14 4,-4 6,-4 13,-4l394 0c3,0 6,0 8,1 8,3 7,11 7,17 0,11 0,22 0,33l-424 0zm-11 -40l0 313c0,0 0,0 0,0l0 1c0,2 0,3 1,7 1,2 2,4 3,6 3,3 6,6 11,7 5,2 28,1 36,1 67,0 133,0 200,0 5,0 13,0 18,0 0,2 0,22 0,26 0,9 0,15 4,22 5,9 11,15 21,19 2,1 3,1 5,2 1,0 5,1 6,1l104 0c0,0 6,-1 7,-1 5,-1 10,-4 14,-7 1,-1 1,-1 2,-2 2,-1 4,-5 6,-6 7,-10 7,-19 7,-30l0 -163c0,-3 0,-6 0,-8 0,-2 0,-2 1,-3 2,-2 1,-1 2,-3l0 -182c0,-1 0,-4 -2,-8 -2,-4 -6,-8 -11,-10 -5,-2 -7,-1 -8,-2l-404 0c-1,0 -2,0 -5,1 -1,0 -3,1 -4,1 -13,7 -12,18 -13,20z"/>
   <path class="fil0" d="M41 286c0,-1 3,-5 4,-7 8,-12 63,-98 64,-98l49 79c5,8 12,19 16,26l-134 0zm153 -60c2,2 3,5 5,7 3,4 36,51 36,52l-47 0c-1,-2 -3,-4 -4,-6 -3,-4 -10,-16 -12,-19l22 -34zm-153 -94c0,-1 0,-1 1,-1 1,0 2,0 3,0l187 0c9,0 8,-1 8,3 0,4 0,7 0,11l0 128c-1,-1 -16,-23 -18,-26 -3,-4 -6,-9 -9,-13l-13 -19c-1,-2 -3,-5 -7,-4 -3,1 -4,4 -5,6 -1,2 -3,4 -4,7l-17 26c-1,-2 -3,-4 -4,-6l-41 -66c-1,-2 -6,-11 -8,-12 -5,-3 -9,4 -11,7 -5,8 -61,94 -61,94l0 -135zm210 155c1,-3 0,-9 0,-12l0 -136c0,-4 0,-9 -1,-12 -1,-3 -3,-5 -6,-6 -4,-2 -18,-1 -24,-1l-174 0c-4,0 -8,0 -11,2 -2,1 -5,4 -5,7 0,3 0,141 0,149 0,6 -2,14 7,18 4,2 18,1 24,1l174 0c7,0 14,0 16,-9z"/>
   <path class="fil0" d="M415 37c1,-3 -1,-5 -2,-6 -2,-1 -6,-1 -8,-1 -65,0 -131,0 -196,0l-62 0c-6,0 -7,7 -3,10 2,1 6,1 8,1l249 0c6,0 12,1 14,-4z"/>
   <path class="fil0" d="M373 224c-3,1 -4,3 -4,6l-7 24c-6,21 -13,42 -19,62 -2,5 -3,10 -5,16 -1,2 -2,6 -2,8 1,2 3,4 6,4 3,-1 4,-3 4,-5l26 -86c2,-5 3,-10 5,-16 1,-2 2,-6 2,-8 -1,-2 -3,-4 -6,-4z"/>
   <path class="fil0" d="M168 160c6,-1 11,3 12,8 1,6 -3,11 -8,12 -13,3 -18,-17 -4,-20zm-19 13c2,11 11,20 24,18 11,-1 20,-11 18,-24 -1,-11 -11,-20 -24,-18 -10,1 -20,11 -18,24z"/>
   <path class="fil0" d="M409 284c-1,1 -7,7 -8,9 -5,6 -12,12 -17,18 -1,1 -3,3 -2,6 1,2 3,4 6,3 3,0 4,-2 5,-4l17 -18c2,-1 3,-3 4,-5 2,-2 3,-3 4,-5 4,-4 6,-6 1,-11l-22 -22c-1,-1 -7,-8 -9,-8 -5,-2 -9,5 -5,9 3,3 25,25 26,27z"/>
   <path class="fil0" d="M305 284l26 -26c4,-4 0,-10 -5,-9 -2,1 -8,7 -9,8l-17 18c-1,2 -3,3 -4,4 -5,6 -2,8 1,11 8,9 17,18 25,27 1,1 3,3 5,4 4,1 9,-4 4,-9l-17 -18c-2,-1 -3,-3 -4,-5 -1,-1 -4,-4 -4,-5z"/>
   <path class="fil0" d="M346 390c-6,2 -6,10 2,10 4,0 18,0 21,0 5,-1 6,-10 -2,-10 -4,0 -18,0 -21,0z"/>
   <path class="fil0" d="M346 167c-6,2 -6,10 2,10 4,0 18,0 21,0 5,-1 6,-10 -2,-10 -4,0 -18,0 -21,0z"/>
   <path class="fil0" d="M62 30c0,3 0,7 0,11 3,0 5,0 8,0 9,0 7,1 7,-6 0,-5 0,-4 -2,-4 -4,0 -9,0 -13,0z"/>
   <polygon class="fil0" points="32,34 32,41 47,41 47,30 32,30 "/>
   <path class="fil0" d="M92 41l15 0c0,-5 0,-4 0,-11l-15 0c0,2 0,9 0,11z"/>
  </g>
 </g>
</svg>
