<?xml version="1.0" encoding="UTF-8"?>
<!DOCTYPE svg PUBLIC "-//W3C//DTD SVG 1.1//EN" "http://www.w3.org/Graphics/SVG/1.1/DTD/svg11.dtd">
<!-- Creator: CorelDRAW X6 -->
<svg xmlns="http://www.w3.org/2000/svg" xml:space="preserve" width="400%" height="400%" version="1.1" style="shape-rendering:geometricPrecision; text-rendering:geometricPrecision; image-rendering:optimizeQuality; fill-rule:evenodd; clip-rule:evenodd"
viewBox="0 0 629 626"
 xmlns:xlink="http://www.w3.org/1999/xlink">
 <defs>
  <style type="text/css">
   <![CDATA[
    .fil0 {fill:#ECE34C}
    .fil1 {fill:#EFE64B}
   ]]>
  </style>
 </defs>
 <g id="Layer_x0020_1">
  <metadata id="CorelCorpID_0Corel-Layer"/>
  <g id="_891298672">
   <path class="fil0" d="M44 4c0,1 0,0 0,1l-3 0c-2,0 -10,5 -12,6 -13,10 -23,22 -26,39 -1,3 -1,5 -1,8 -1,4 0,50 0,56l0 299c0,12 -1,26 1,36 3,11 6,18 12,25 10,13 28,25 50,25l0 -20c-22,0 -40,-16 -43,-36 -1,-7 -1,-17 -1,-26l0 -316 556 0c1,0 3,0 4,0 3,0 3,1 3,-2 0,-6 0,-12 0,-18l-563 0c0,-19 -1,-30 10,-44 6,-8 12,-10 13,-11l0 -2 3 0c3,-1 4,-2 15,-4 4,-1 121,0 128,0 122,0 244,0 366,0 6,0 12,0 18,1 2,0 5,1 7,2l6 3c3,2 8,6 10,8 2,2 4,5 6,8 1,1 1,2 2,3l3 0 0 7c0,2 2,6 2,10 0,62 0,125 0,188 0,62 0,125 0,187 0,5 -2,9 -2,11l0 6 -3 0 -2 3c-9,13 -21,20 -37,22 -2,0 -2,0 -1,7l1 12c0,2 0,2 3,1 5,-1 10,-2 15,-3 7,-2 16,-7 21,-11 1,-1 2,-2 3,-2 0,-1 0,-1 0,-3l3 0 2 -2c6,-7 6,-7 11,-16 3,-6 6,-16 6,-25l0 0c0,-75 0,-149 0,-224l0 -151c0,-10 -4,-21 -9,-29l-3 -5c0,0 0,-1 -1,-1 -1,-2 -5,-6 -7,-7l-3 0 0 -2 -5 -4c-6,-4 -11,-7 -18,-9 -8,-3 -17,-3 -27,-3l-6 0 -1 0 -474 0 -10 0c-1,0 -2,0 -3,0 -4,0 -5,-1 -13,1 -1,0 -6,1 -7,2z"/>
   <path class="fil0" d="M190 60l147 0 0 -19c0,-1 0,-1 -1,-1l-146 0 0 20z"/>
   <path class="fil0" d="M62 60l20 0 0 -19c0,-1 0,-1 -1,-1l-19 0 0 20z"/>
   <path class="fil0" d="M149 41l0 19 20 0 0 -20 -19 0c-1,0 -1,0 -1,1z"/>
   <path class="fil0" d="M125 40c-1,-1 -18,0 -19,0 0,0 0,0 0,0 0,0 0,0 0,0l0 20 19 0 0 -20z"/>
   <path class="fil1" d="M125 40l0 20 -19 0 0 -20c-1,1 0,3 0,5l0 15 20 0 0 -19c0,-1 0,-1 0,-1z"/>
   <path class="fil1" d="M607 51l0 -7 -3 0c0,1 1,2 1,3 0,1 0,1 1,2 0,0 0,0 0,1 0,1 0,0 1,1z"/>
   <path class="fil1" d="M604 454l3 0 0 -6c0,0 0,0 0,1 0,0 0,1 0,1 0,1 0,1 -1,2 -1,1 -1,2 -1,3z"/>
   <path class="fil0" d="M172 605l-49 0c-5,0 -8,-3 -8,-8l0 -32 65 0 0 31c0,5 -3,9 -8,9zm-2 -374c0,1 1,2 1,3l2 3c0,1 0,1 0,2l-52 0 8 -18c1,-1 3,-5 3,-6 1,-1 3,-6 4,-7 1,-3 10,-21 11,-23l1 0c0,2 2,4 3,6l14 30c1,3 3,6 4,9 0,1 0,1 1,1 0,0 0,1 0,1 0,1 0,0 1,1zm5 -35c0,-1 -2,-5 -3,-6l-9 -18c-1,-2 -1,-3 -2,-5l-4 -9c-1,-1 -2,-3 -2,-4 -5,-6 -14,-5 -17,1 -1,2 -8,17 -9,18l-1 1c-1,1 -2,3 -2,5l-5 11c-1,1 -1,2 -2,4l-7 15c-1,3 -2,5 -3,7 -3,6 -8,17 -10,22l-4 0 0 356c0,6 0,8 1,12 3,8 9,14 17,17 2,1 4,1 6,1 9,0 18,0 27,0 9,0 18,0 27,0 8,0 17,-6 21,-13 3,-6 4,-9 4,-17l0 -357 -4 0c-5,-10 -12,-26 -18,-37l-3 -5zm-38 348l-22 0 0 -286 65 0c-1,2 0,64 0,71l0 179c0,5 -1,33 0,36l-23 0 0 -263 -20 0 0 263z"/>
   <path class="fil1" d="M606 482l3 -3 -3 0c0,2 0,2 0,3z"/>
   <path class="fil1" d="M609 19c-1,-1 -1,-2 -3,-2l0 2 3 0z"/>
   <path class="fil0" d="M325 301l0 20c1,1 4,0 5,0l38 0 0 21 -21 0 0 20 21 0 0 23 -21 0 0 20 21 0 0 20c-1,0 -41,-1 -42,0l0 20 42 0 0 21 -21 0 0 18c0,2 0,2 1,2 1,0 18,0 21,0l0 23 -21 0c0,4 -1,17 0,20l21 0 0 20 -42 0 0 20 42 0c0,5 0,14 0,18 0,3 -1,5 -2,7 -4,7 -10,10 -18,10l-56 0c-11,0 -18,2 -26,-7 -1,-1 -1,-2 -2,-3 0,-1 -1,-2 -1,-3l-1 -3c0,0 0,0 0,0 0,0 0,0 0,0l0 -427c0,-1 1,-4 2,-5 1,-1 1,-1 1,-2 1,-1 1,-2 2,-2 8,-8 13,-7 25,-7 5,0 60,-1 63,0 2,1 4,1 6,3 10,7 9,16 9,28l-42 0 0 20c1,1 41,0 42,0l0 21 -21 0 0 20 21 0 0 23 -21 0 0 20 21 0 0 20 -42 0zm-68 317c1,0 0,0 1,1 0,0 0,0 1,0 1,0 1,1 2,1 2,2 10,4 13,5 8,1 57,1 71,1 16,0 28,-5 36,-17 4,-5 6,-11 7,-17 1,-5 0,-19 0,-24l0 -383c0,-19 1,-29 -7,-41 -5,-7 -12,-13 -20,-16 -9,-3 -23,-2 -34,-2 -14,0 -34,0 -48,0 -3,0 -8,1 -10,2 -2,1 -6,2 -8,4 -1,0 -1,0 -1,1 -1,1 -1,0 -1,1 -1,0 -2,1 -2,1 -9,7 -15,18 -15,30 0,5 0,11 0,16l0 390c0,23 -1,32 15,46 1,1 2,1 3,2z"/>
   <path class="fil1" d="M43 26l3 -2c0,0 0,0 0,0l-3 0 0 2z"/>
   <path class="fil1" d="M520 620l3 -2c0,0 0,0 0,0l-3 0 0 2z"/>
   <path class="fil1" d="M40 5l3 0c0,-1 0,-1 0,-1 -1,0 -1,0 -2,1 0,0 0,0 -1,0 -1,0 0,0 -1,1z"/>
   <path class="fil0" d="M515 596c0,4 -1,5 -7,7 -10,4 -23,4 -34,-2 -4,-2 -3,-2 -3,-7 0,-2 0,-2 0,-3 0,-2 0,-5 0,-7 0,-2 0,-4 0,-6 0,-5 0,-8 0,-13 0,-3 0,-4 0,-6 0,-9 -1,-17 -1,-26 0,-2 0,-4 0,-6 0,-5 0,-9 0,-14l0 -13c0,-3 -1,-38 -1,-39l0 -13c0,-2 0,-4 0,-7 0,-3 0,-4 0,-6 0,-9 -1,-18 -1,-27l-1 -26c0,-9 -1,-17 -1,-26 0,-6 -1,-13 -1,-20 0,-3 0,-4 0,-6 0,-9 -1,-18 -1,-27 8,4 21,8 30,8 2,0 2,1 4,0 2,0 2,0 4,0 4,0 12,-2 16,-3l7 -3 -9 293zm-39 -445l-3 2c0,0 0,0 0,0 -5,2 -14,13 -17,17 -9,11 -18,31 -22,46 0,2 -1,4 -1,6 -1,1 -1,7 -2,9 0,3 -1,6 -1,10 0,2 0,3 0,5 0,1 0,2 0,3 0,2 0,1 0,3 0,4 2,15 3,16 0,3 4,10 5,13 2,4 2,3 2,7l1 14c0,5 0,9 0,14 0,3 0,4 0,6 0,2 0,5 0,7 0,4 0,7 0,10 0,2 0,2 0,3l0 17c0,2 0,2 0,3 0,2 0,5 0,7l1 20c0,2 0,3 0,7 0,5 0,9 0,14l1 27c0,5 0,9 0,14l2 48c0,2 0,5 0,7 0,2 0,4 0,7 0,3 0,4 0,7 0,5 0,9 0,14 0,3 0,4 0,6 0,2 0,5 0,7l0 10c0,2 0,2 0,3 0,10 0,18 1,28 0,2 0,4 0,6l1 14c0,1 3,3 3,4 4,4 12,9 18,11 4,1 7,2 11,3 10,2 25,1 35,-4 0,0 0,0 1,0 0,0 0,0 1,0l0 -2 3 0c3,-1 11,-8 12,-9 0,-1 1,-3 1,-4 0,-3 0,-6 0,-8 0,-3 0,-5 0,-8l9 -290c0,-3 0,-5 0,-8 0,-5 0,-4 2,-7 1,-2 2,-3 3,-5 4,-9 7,-28 5,-37l-1 -8c-3,-20 -9,-30 -13,-46 -4,-14 -6,-22 0,-36 1,-2 2,-4 3,-6 1,-1 1,-2 1,-3 1,-1 1,-2 1,-3l3 -6c-4,0 -7,0 -11,0 -2,0 -3,0 -5,0 -2,0 -4,0 -6,0 -9,1 -11,1 -20,3 -7,1 -19,5 -25,9 -2,1 -6,3 -7,4zm43 132c0,0 -1,0 -1,1l-1 1c-2,0 -18,11 -43,1 -30,-12 -26,-49 -17,-75 4,-10 8,-18 14,-26 1,-1 6,-7 6,-7l3 -3c2,-1 2,-2 4,-3 1,-1 3,-2 4,-3 5,-3 13,-7 19,-9 2,-1 4,-1 6,-1 1,0 5,-1 6,-1l0 1c0,1 -1,3 -1,6 -1,3 0,7 0,10 0,3 1,6 1,8 0,1 0,2 1,4 0,1 0,1 0,2l1 2c0,3 6,20 7,23 3,8 5,16 6,25 1,9 1,20 -1,28 0,2 -1,4 -2,6 -5,9 -10,11 -11,12z"/>
  </g>
 </g>
</svg>
