<?xml version="1.0" encoding="UTF-8"?>
<!DOCTYPE svg PUBLIC "-//W3C//DTD SVG 1.1//EN" "http://www.w3.org/Graphics/SVG/1.1/DTD/svg11.dtd">
<!-- Creator: CorelDRAW X6 -->
<svg xmlns="http://www.w3.org/2000/svg" xml:space="preserve" width="100%" height="100%" version="1.1" style="shape-rendering:geometricPrecision; text-rendering:geometricPrecision; image-rendering:optimizeQuality; fill-rule:evenodd; clip-rule:evenodd"
viewBox="0 0 806 815"
 xmlns:xlink="http://www.w3.org/1999/xlink">
 <defs>
  <style type="text/css">
   <![CDATA[
    .str0 {stroke:#373435;stroke-width:4.18}
    .fil0 {fill:#363435}
    .fil1 {fill:#363536}
    .fil2 {fill:#373435}
   ]]>
  </style>
 </defs>
 <g id="Layer_x0020_1">
  <metadata id="CorelCorpID_0Corel-Layer"/>
  <g id="_1008434192">
   <path class="fil0" d="M405 548c-9,0 -22,-2 -30,-4 -10,-2 -16,-4 -26,-8 -16,-6 -39,-22 -50,-35 -2,-3 -2,-3 -4,-5 -47,-59 -44,-137 10,-191 50,-50 129,-54 183,-13 19,15 32,30 43,52 1,2 1,3 3,6 24,53 9,116 -31,156l-18 15c-22,15 -53,26 -80,26zm-200 -93c6,25 22,60 40,80 11,13 21,23 34,33 17,13 35,23 56,31 24,9 32,8 57,12 9,1 52,-1 61,-6l0 -5 18 0c10,-1 35,-15 44,-20 7,-4 13,-9 18,-13 6,-5 11,-9 17,-15 68,-68 80,-176 27,-257 -19,-29 -55,-62 -87,-74 -54,-22 -103,-27 -161,-4 -5,2 -6,3 -11,5 -88,39 -135,142 -113,234z"/>
   <path class="fil1" d="M679 97l0 -11 -16 0c3,3 -2,-1 3,2 2,1 3,2 4,3 3,2 5,3 9,5z"/>
   <path class="fil0" d="M693 32c-1,-1 -1,-1 -3,-2 -2,-1 -2,-1 -5,-2 -5,-3 -3,-3 -8,-4 2,5 2,2 2,9l14 0z"/>
   <path class="fil0" d="M663 87l16 0 0 11c4,6 7,6 12,11 11,10 23,25 30,39 10,16 21,47 21,72 1,122 0,252 0,375 0,39 -25,89 -51,112 -6,5 -8,5 -13,12 -7,2 -3,1 -8,5 -6,4 -4,1 -8,6 -9,2 -21,12 -43,17 -39,9 -130,6 -175,6 -48,0 -205,2 -240,-2 -61,-7 -110,-52 -132,-109 -12,-32 -10,-68 -10,-110l0 -242c0,-43 -2,-80 9,-112 18,-55 68,-102 131,-111 35,-5 302,-2 360,-2 33,0 49,2 77,13 7,3 17,9 22,10zm16 704c4,-1 4,-1 8,-3 2,-1 2,-1 3,-2 4,-3 1,0 3,-2 63,-33 112,-113 113,-189l0 -369c0,-51 -18,-98 -47,-136 -14,-19 -49,-53 -66,-58l-14 0c0,-7 0,-4 -2,-9l-2 -1c-16,-9 -31,-12 -49,-17 -11,-3 -33,-4 -59,-5l-143 0 -210 0c-19,1 -41,6 -56,11 -67,22 -116,71 -142,135 -15,36 -16,69 -16,120l0 2 0 278c0,67 4,119 40,168 31,42 65,72 119,89 26,8 50,10 77,11l50 0 278 0c43,0 67,-3 104,-18l11 -6z"/>
   <polygon class="fil1" points="453,605 470,599 453,599 "/>
   <circle class="fil2 str0" cx="624" cy="187" r="48"/>
  </g>
 </g>
</svg>
